<svg version="1" xmlns="http://www.w3.org/2000/svg" width="341.333" height="341.333" viewBox="0 0 256.000000 256.000000"><path d="M101.3 22.7c14.8.2 38.6.2 53 0 14.4-.1 2.4-.2-26.8-.2-29.1 0-40.9.1-26.2.2zM65.8 23.7c1.8.2 4.5.2 6 0s0-.4-3.3-.4-4.5.2-2.7.4zM183.3 23.7c1.5.2 3.9.2 5.5 0 1.5-.2.2-.4-2.8-.4s-4.3.2-2.7.4zM56.8 24.7c1.2.2 3 .2 4 0 .9-.3-.1-.5-2.3-.4-2.2 0-3 .2-1.7.4zM194.8 24.7c1.2.2 3 .2 4 0 .9-.3-.1-.5-2.3-.4-2.2 0-3 .2-1.7.4zM50.3 25.7c.9.2 2.3.2 3 0 .6-.3-.1-.5-1.8-.5-1.6 0-2.2.2-1.2.5zM201.8 25.7c.6.2 1.8.2 2.5 0 .6-.3.1-.5-1.3-.5-1.4 0-1.9.2-1.2.5zM40.6 27.6c-2.6.9-4.6 1.7-4.4 1.9.2.2 3.1-.4 6.3-1.4 3.3-1.1 5.3-1.9 4.5-1.9-.8-.1-3.7.6-6.4 1.4zM212.5 28.1c3.2 1 6.1 1.6 6.3 1.4.5-.4-9.7-3.5-11.2-3.4-.6 0 1.6.9 4.9 2zM32 32.2c-1.1 1.2-2 2.6-2 3.2 0 .5.1.7.3.5.1-.2 1.3-1.6 2.6-3.2 2.9-3.2 2.1-3.7-.9-.5z"/><path d="M221.9 32.6c2 2.5 2.1 3.9 2.1 23.5 0 11.4-.3 21-.7 21.2-.5.3-.7-8.9-.5-20.4l.3-20.8-94.2-.1c-51.8 0-94.6-.3-95.3-.6-.6-.3-.2.1.8 1 6 4.9 25.6 7.5 64.1 8.7 28.8.9 85.9.4 87.8-.8.4-.2.7 8.6.7 19.6V84l3.8.1c2 .1-1 .8-6.8 1.6-14.9 1.9-83.4 2.9-103.1 1.4-28-2.1-47.6-6-49.8-9.9-.6-.9-1.1-1.2-1.1-.7 0 .6.5 1.6 1.1 2.2.8.8.8 1.7-.1 3.3-.7 1.2-.8 2-.2 1.6.5-.3 1.5.1 2.2.9 1.7 2 9.6 4.3 21 6 7.5 1.2 23.4 1.5 74.5 1.7 35.8 0 63.5.3 61.7.5l-3.3.4.3 20.4.3 20.3-8.5.6c-4.7.4-11.2 1-14.5 1.3-10.4 1.2-71.3.8-87-.5-25-2.1-41.5-5.4-46-9-1.8-1.6-1.9-1.6-.7 0 1 1.3 1.1 2.2.2 3.8-.6 1.1-.7 1.9-.3 1.8.4-.1 2.1.6 3.6 1.6 4.3 2.9 16.8 5.5 32.2 6.7 8.6.6 35.6.9 69.7.7 30.6-.2 55.4.1 55.1.5-.3.5-1.4.7-2.4.4-1.8-.5-1.9.2-1.9 9.4v10l-9.6 11.4-9.7 11.5-6.6.2c-15.1.5-14.1.8-22.2-6.5-4-3.7-7.9-6.7-8.5-6.7-.7 0-4 3.1-7.4 7l-6.2 7h-7.7c-11.6 0-38.2-1.9-50.7-3.5-14.1-1.9-22.1-4-25.9-6.7-2-1.5-2.5-1.6-1.6-.5 1.1 1.4 1.1 2 .1 3.2-.7.9-1 1.8-.6 2.2.3.3.6 0 .6-.8.1-1 .3-1 1 .3 3.2 5.4 25.4 8.8 57.6 8.8 17.7 0 22.4.3 22.4 1.3 0 .7-1.8 3.1-4 5.2s-4 4.4-4 5.1c0 .6 7.5 8.1 16.7 16.5l16.6 15.4-22.4.5-22.4.6 23.2.2 23.1.2 5 4.2c2.8 2.4 8.4 7.3 12.5 11.1 4.1 3.7 7.8 6.7 8.3 6.7.5 0 5.8-5.4 11.8-12 10.3-11.3 11-11.9 15.4-12.5 15.7-2.1 28.5-5.1 27.7-6.5-.4-.6.1-.7 1.1-.3 1.1.4 1.5.2 1.1-.4-.4-.6.1-1 1.1-.9 1.5.1 1.7-1.5 2.2-16.6l.5-16.7 3.6-3.8c6.6-7.1 24.4-26.8 25.7-28.4 1-1.4-1-3.6-14.3-15.8L225 126.9v-21.7c0-17-.3-22.2-1.4-23.7-1.1-1.6-1.1-2.1 0-3.3 1.1-1 1.4-5.9 1.4-22.6 0-20-.1-21.4-2-23.4-2.9-3.1-3.6-2.8-1.1.4zm-28.6 12.1c-.7.2-1.9.2-2.5 0-.7-.3-.2-.5 1.2-.5s1.9.2 1.3.5zm30.4 70c-.1 6-.3 1.1-.3-10.7 0-11.8.2-16.7.3-10.8.2 6 .2 15.6 0 21.5zm-30.4 18c-.7.2-2.1.2-3 0-1-.3-.4-.5 1.2-.5 1.7 0 2.4.2 1.8.5zM163 188.9c0 .6-1.1 2.3-2.4 3.8l-2.4 2.8-2.6-2.4c-4-3.8-3.4-5.1 2.4-5.1 2.8 0 5 .4 5 .9zm60.7 25.3c-.1 4-.3 1-.3-6.7s.1-11 .3-7.3c.2 3.7.2 10 0 14zm-14.4 12.5c-.7.2-2.1.2-3 0-1-.3-.4-.5 1.2-.5 1.7 0 2.4.2 1.8.5zm-6.5 1c-1 .2-2.6.2-3.5 0-1-.3-.2-.5 1.7-.5s2.7.2 1.8.5zm-6.5 1c-.7.2-2.1.2-3 0-1-.3-.4-.5 1.2-.5 1.7 0 2.4.2 1.8.5zM38.5 226c1.1.5 2.9.8 4 .8 1.6 0 1.5-.2-.5-.8-3.4-1.1-6-1.1-3.5 0zM45.8 227.7c.7.3 1.6.2 1.9-.1.4-.3-.2-.6-1.3-.5-1.1 0-1.4.3-.6.6zM50.8 228.7c.6.2 1.8.2 2.5 0 .6-.3.1-.5-1.3-.5-1.4 0-1.9.2-1.2.5zM57.3 229.7c.9.2 2.5.2 3.5 0 .9-.3.1-.5-1.8-.5-1.9 0-2.7.2-1.7.5zM67.3 230.7c1.5.2 3.7.2 5 0 1.2-.2 0-.4-2.8-.4-2.7 0-3.8.2-2.2.4zM79.3 231.7c2 .2 5.4.2 7.5 0 2-.2.3-.4-3.8-.4s-5.8.2-3.7.4z"/></svg>