<svg version="1" xmlns="http://www.w3.org/2000/svg" width="1365.333" height="1365.333" viewBox="0 0 1024.000000 1024.000000"><path d="M115.7 105.7c-1.2 1.2-.8 9.3.6 9.8.6.2 8.2 1.1 16.7 1.9 8.5.9 20.3 2.7 26.2 4 31 7.1 55.2 27.4 62.8 52.7 1.7 5.6 4.8 22.9 5.1 27.9 0 .8 1.1-1.8 2.5-5.9 4.3-13 10.8-20.8 21.9-26.4 9-4.5 15.3-5.9 30-6.4 12.2-.5 15.2-.3 22.5 1.6 12.4 3.1 20.3 7.4 28.6 15.7 7.3 7.2 12.4 15.8 14.3 24 1.1 5 1.6 3.3 3.1-9.5 2.9-25.7 10.6-41.4 27.2-54.8 18.2-14.7 36.6-20.5 75.1-23.9l7.7-.6V105H288.2c-94.5 0-172.2.3-172.5.7zM659.7 105.7c-.4.3-.7 2.8-.7 5.4v4.7l8.3.6c13.5 1.1 30.1 3.5 38.1 5.6 30.4 7.7 52.5 27.3 60.6 53.5 5.5 18.2 5.4 12.9 5.8 194.5.2 107.3-.1 173.3-.7 183.7-1.6 25.7-6.6 45.4-15.2 60-8 13.6-30.2 32.5-51.9 44.2-33.7 18.1-82.2 31.4-130 35.6-31.2 2.8-74.5 1.5-97-2.9-41.6-8.1-71.7-24.5-94.6-51.7-23.7-28.2-31.5-50.6-33.9-97.3-.6-10.9-1.5-15.8-1.5-7.8v4.2H229v3.9c0 2.1.3 6.6.6 10l.7 6.1H347v22.8l-38.6 27.3c-21.3 15.1-39.5 27.8-40.5 28.3-1.1.5-1.9 1.3-1.9 1.8 0 .4 18.2.8 40.5.8H347v11l-35.6-.2-35.6-.3 3.4 2.8c7.6 6.5 25.2 17.4 38.3 23.8 51.6 25.1 125.4 36.5 219 33.8 92.9-2.7 164.1-23.7 212.7-62.8 25.8-20.8 37.1-41.1 43-77.9 2.1-13.6 2.2-15 2.9-186.2.7-174.8.8-180 4.5-198.5 4.5-22.1 14.8-37.6 32.9-49.4 16.6-10.8 34.8-15.9 67.8-18.7l7.7-.6V105H784.2c-68.1 0-124.2.3-124.5.7z"/><path d="M273 200.6c-7.4.7-19.2 3.5-23.5 5.6-19.7 9.8-18.6 34.6 2 44 4.1 1.8 6.7 2.2 14.3 2.2l9.3-.1-.6 3.1c-1.9 9.4-2.5 10.4-5.6 11.1-5.1 1.2-14-.4-20.7-3.6-7.3-3.5-14-11.1-17.1-19.4-1.3-3.3-2.1-4.5-2.5-3.5-.4.9-.5 10.1-.4 20.5l.3 19 59.3.3 59.2.2v-17.4c0-9.5.3-18.8.6-20.5 1-4.9-.8-3.5-3.9 2.9-4.5 9.5-14.1 15.4-26.2 16.2l-5 .3-2.2-4.5c-1.2-2.5-2.7-5.7-3.2-7.3l-1-2.7h6.8c17.3 0 27.1-8.1 27.1-22.3 0-11.2-9.7-18.9-28-22.1-8.9-1.5-31.3-2.7-39-2zM228.4 317.3c-.2.7-.3 7.4-.2 14.8l.3 13.4 29.8.3 29.7.2v-30h-29.5c-23.3 0-29.7.3-30.1 1.3zM299 331v15h48v-30h-48v15zM228.7 382.7c-1.2 1.1-.8 6 .6 7.1.6.5 26.9 8.9 58.2 18.7 31.4 9.8 57.6 18 58.3 18.2.9.4 1.2-4.4 1.2-22.1V382h-58.8c-32.4 0-59.2.3-59.5.7zM228 430.5c0 29.4-.5 27.5 7.1 25.1 2.4-.8 7.7-2.4 11.7-3.5l7.2-2.2v-38.5l-11.9-3.7c-6.6-2-12.4-3.7-13-3.7-.8 0-1.1 8.3-1.1 26.5zM265.7 415.6c-.4.4-.7 7.4-.7 15.6 0 12.7.2 14.8 1.6 14.8 1.3 0 39.9-10.5 48.2-13.1 3.2-1 4.4-2.9 1.9-2.9-1.2 0-44.8-12.9-48.8-14.5-.8-.3-1.8-.2-2.2.1zM287.1 476c-31.6 9.3-57.8 17.3-58.3 17.8s-.8 2.5-.6 4.3l.3 3.4 59.3.3 59.2.2v-21.5c0-16.6-.3-21.5-1.2-21.4-.7 0-27.1 7.6-58.7 16.9zM232 572.2c0 8.7 11.9 42.1 13.9 39.1.3-.5 13.3-9.9 28.9-20.7 15.5-10.9 28.2-20 28.2-20.2 0-.2-16-.4-35.5-.4H232v2.2zM253.1 624.5c4.8 6.9 6.9 9.4 6.9 8.1 0-.3-2.2-3.5-5-7.2-2.7-3.7-5-7.1-5-7.5 0-.5-.5-.9-1.1-.9-.5 0 1.3 3.4 4.2 7.5zM387.5 790.2c-1 2.9-2.8 7.2-4.1 9.5-2.9 5-3.1 7.6-.6 7.1.9-.2 2.8-2.4 4.2-5.1l2.5-4.7h6.2c6.1 0 8.9-1.4 6.2-3.1-.8-.5-3.6-.9-6.2-.9-4.5 0-4.8-.1-4.2-2.3.4-1.2.7-2.4.7-2.7 0-2.2-.4-3-1.6-3-.9 0-2.1 2.2-3.1 5.2zM710.4 786.1c-.3.6-.3 2.1 0 3.5l.6 2.4h-11.4c-16.7 0-16.1-.9-16.3 22.2-.1 18.1-.9 24.2-4 30.2-1.1 2.1-1.2 3.1-.3 4 1.6 1.6 4.3-2.2 6.5-9.3 1.4-4.2 2-10.3 2.4-24.1l.6-18.5 25-.3c13.8-.1 25.6-.4 26.4-.7 1.1-.4 1.1-.8.1-2s-3.8-1.5-13-1.5h-11.8l-.7-2.9c-.6-3.1-3-4.8-4.1-3zM291.3 795.2c-1.2 5.1-4 12.9-6.3 17.3-2.8 5.6-3.7 8.2-2.9 9 1.1 1.1 5.7-3.7 6.1-6.5.1-.8.5 6.4.8 16 .4 14.7.7 17.5 2 17.5s1.6-3.5 2.1-23c.4-16.5 1-25.1 2.2-30.3 1-4 1.5-7.7 1.2-8.3-1.7-2.6-3.2-.1-5.2 8.3zM314.7 786.6c-.4.4-.7 3.6-.7 7.1v6.3h-8.6c-7.6 0-8.5.2-8.2 1.7.3 1.5 1.7 1.9 8.4 2.3l8.1.5-1.8 9c-2.1 10.3-7.8 22.7-13.5 29.3-2.9 3.4-3.4 4.6-2.5 5.5 2.7 2.6 14.2-13.7 18.1-25.7.7-2.1 1.8-7 2.4-11l1.2-7.1 13.5-.5c11-.4 13.4-.8 13.4-2s-2.3-1.5-13.2-1.8l-13.2-.3-.3-6.6c-.3-6.1-1.4-8.4-3.1-6.7zM426.1 788.6c-1.2 1.5-2.1 3.1-2.1 3.5 0 .5-2.1.9-4.7.9-2.7 0-5.4.4-6.2.9-2.3 1.5-.2 3.1 4 3.1 2.1 0 3.9.2 3.9.5 0 .2-1.7 3.9-3.7 8.1-3.7 7.4-3.8 7.6-1.8 9 1.3 1 3.7 1.4 7.3 1.2l5.2-.3v7.4l-7.2.3c-5.7.2-7.3.6-7.3 1.8 0 1.2 1.6 1.6 7.2 1.8l7.2.3.3 7.2c.2 5.9.6 7.2 2.1 7.5 1.5.3 1.7-.6 1.7-7.2v-7.5l6.8-.3c5.2-.2 6.7-.6 6.7-1.8 0-1.2-1.5-1.6-6.7-1.8l-6.8-.3V816h4.9c2.8 0 5.3-.6 6-1.3 1.6-2.1.3-2.7-5.6-2.7H432v-5.6c0-4.7-.3-5.5-1.7-5.2-1.4.2-1.9 1.5-2.1 5.6l-.3 5.2h-3.8c-2.1 0-4-.3-4.4-.6-.3-.4 1-3.7 2.9-7.5l3.4-6.9h8.5c5.1 0 8.7-.4 9.1-1.1 1.1-1.9-1.8-2.9-8.9-2.9-6.4 0-6.7-.1-5.7-1.9 1.3-2.4 1.3-5.1.1-5.1-.5 0-1.9 1.2-3 2.6zM498.7 786.7c-.4.3-.7 3.5-.7 7v6.3h-3c-2.1 0-2.8-.4-2.4-1.4.6-1.5-2.9-9-4.7-10.1-.6-.4-1.6-.2-2.2.4-.7.7-.3 2.5 1.7 6.1l2.7 5h-3.9c-3.8 0-6.9 1.9-5.5 3.3.3.4 3.7.7 7.5.7 3.7 0 6.8.4 6.8.9 0 1.2-6.8 6.6-10.3 8.2-2.9 1.3-3.6 3.6-1.3 4.5 1.6.6 7.6-2.9 11.8-6.9l2.7-2.5.3 5.1c.2 4 .7 5.3 2.1 5.5 1.5.3 1.7-.5 1.7-5.5l.1-5.8 4.8 5.4c2.9 3.3 5.2 5.1 5.9 4.7 1.9-1.1 1.5-2.1-3.4-8.1l-4.6-5.6 5.1.2c5.6.3 6.7-.2 5.8-2.6-.4-.9-1.9-1.5-3.7-1.5h-3.1l2.6-4.3c2.7-4.8 3.2-7.7 1.3-7.7-1.4 0-7.5 9.7-7 11.1.1.5-.7.9-1.8.9-1.8 0-2-.7-2-7 0-5.2-.3-7-1.3-7-.8 0-1.7.3-2 .7zM590 791.9v6l-5.2.3c-3.9.2-5.3.7-5.3 1.8s1.4 1.6 5.3 1.8l5.3.3-.3 9.2-.3 9.1-4.2 1.6c-5.3 1.9-7.1 3.6-5.6 5.1.7.7 2.1.6 4.8-.5 2.1-.9 4.2-1.6 4.7-1.6s.7 4.3.6 9.7c-.2 5.8-.7 9.7-1.3 9.7-.5-.1-2.5-.5-4.3-.9-2.5-.5-3.3-.3-3.8 1-.4 1-.1 2.1.7 2.6 2.1 1.3 10.3 1.1 11.7-.3.8-.8 1.2-5.1 1.2-12.9 0-10.2.2-11.8 1.8-12.3 3.7-1.5 8.2-5.2 8.2-6.9 0-2.4-1.6-2.1-5.4.8-1.8 1.4-3.6 2.5-3.9 2.5-.4 0-.7-3.6-.7-8v-8h5.1c4.3 0 5-.3 4.7-1.8-.2-1.3-1.5-1.8-5.1-2l-4.7-.3v-6c0-5.2-.2-5.9-2-5.9s-2 .7-2 5.9z"/><path d="M321.5 788c-1 1.7.2 2.7 7.1 5.9 7.4 3.5 9.4 3.8 9.4 1.6 0-.8-3-3-7-5-7.5-3.8-8.5-4-9.5-2.5zM522.6 788.2c-.2.7-.9 4-1.6 7.3-.7 3.3-2.4 8.9-3.9 12.5-2.6 6.4-2.9 9-1 9 .5 0 1.8-1.4 2.8-3l1.8-3.1.7 4.1c.3 2.2 1.8 7 3.2 10.5l2.6 6.5-3 3.7c-1.7 2.1-4.9 5.6-7.1 7.8-3.6 3.4-4.1 3.6-4.1 1.8 0-1.3-1-2.5-3-3.3l-3-1.3 2.5-3.3c4-5.2 5.7-10.1 4.5-12.4-.9-1.7-2.1-2-8.5-2-6.8 0-7.5-.2-7.5-2 0-1.1-.7-2-1.5-2s-1.9.9-2.5 2c-.9 1.7-2.1 2-7.6 2-5.7 0-6.5.2-6.2 1.7.2 1.4 1.5 1.9 5.7 2.1l5.4.3-3.3 3.4c-1.8 1.9-3 4-2.7 4.8.3.8 3.5 2.5 7.1 3.7 3.6 1.3 6.3 2.6 6 2.9-.2.3-4.2 1.3-8.7 2.2-5.6 1.1-8.2 2-8.2 3 0 2.1 9 1.6 16.8-1l6.5-2.2 5.3 2.6c2.9 1.4 5.7 2.5 6.1 2.5.5 0 3.8-3 7.5-6.8 6-6.1 6.7-6.5 7.7-4.8 2.8 4.8 8.8 11.6 10.1 11.6 2.3 0 1.8-2.4-1.5-6.5-1.7-2.1-4-5.3-5.1-7.2l-2.1-3.3 2.1-6.3c1.8-5.2 4.1-19 4.1-24.4 0-.6 1-1.3 2.3-1.5 1.2-.2 2.2-1 2.2-1.8 0-1.2-1.8-1.6-9-1.8l-9-.3.3-4.4c.3-3.6.1-4.5-1.2-4.5-.9 0-1.8.6-2 1.2zm11.4 18.4c0 6.6-2.7 20.4-4 20.4-.8 0-4.4-11-6-18.4-1.6-7.3-.8-8.6 5.1-8.6h4.9v6.6zM510 828c0 1.9-2.7 6.4-5.2 8.8l-2.5 2.2-4.4-1.8c-2.4-1.1-5.2-2.2-6.2-2.6-1.6-.5-1.5-.9 1-4.1 2.7-3.4 3-3.5 10.1-3.5 4.3 0 7.2.4 7.2 1zM607.4 788.4c-1.7 1.3-1.9 3.2-2.5 22.3-.5 18.5-.8 21.5-2.8 26.8-1.3 3.3-2.7 6.4-3.2 6.9-1.4 1.6-1 4.6.6 4.6 2 0 6.2-8.5 8-16.2.8-3.6 1.5-11.2 1.5-17.6V804h14v3c0 3-.1 3-5.4 3-3.3 0-5.8.5-6.5 1.3-1.7 2.1-.3 2.7 6.1 2.7h5.8v9.7l-4.5.5c-7 .8-7.5 1.7-7.5 12.4 0 11.5-.1 11.4 14.7 11.4 14.9 0 15.3-.3 15.3-12 0-8-.2-9-2.2-10.4-1.3-.9-4.3-1.6-7.1-1.6h-4.8l.3-4.8.3-4.7 6-.3c7.9-.3 9.1-.8 7.5-2.7-.9-1-3.2-1.5-7.6-1.5H627v-3c0-2.9.1-3 5.1-3 7.9 0 8.9-.9 8.9-8.5 0-5.3-.3-6.6-1.9-7.5-3.1-1.6-29.3-1.3-31.7.4zm29.6 7.1v4.5h-28v-2.9c0-6.1 0-6.1 14.6-6.1H637v4.5zm-1.2 33.4c.9.5 1.2 2.8 1 7.7l-.3 6.9h-21l-.3-6.9c-.2-4.9.1-7.2 1-7.7.7-.5 5.1-.9 9.8-.9 4.7 0 9.1.4 9.8.9zM402 790.7c.1 2.5 8.4 11.8 9.9 10.9 1.9-1.2 1.3-2.5-3.5-7.6-5-5.3-6.4-6.1-6.4-3.3zM705.3 800.9l-1.6 4-6.6.3c-5.1.2-6.6.6-6.6 1.8 0 1.1 1.4 1.6 5.7 1.8l5.7.3-2.6 5.9c-3.5 8.1-2.7 9 7.8 9h7.9v9.9l-12.2.3c-10.1.3-12.3.6-12.3 1.8 0 1.2 2.1 1.5 12.2 1.8l12.2.3.3 5.7c.3 4.9.6 5.7 2.3 5.7 1.7 0 2-.8 2.3-5.8l.3-5.7H731c10.3 0 11-.1 11-2s-.7-2-11-2h-11v-10h8.5c7.8 0 8.5-.2 8.5-2s-.7-2-8.4-2h-8.5l-.3-4.3c-.2-3.4-.7-4.2-2.3-4.2-1.6 0-2.1.8-2.3 4.2l-.3 4.3h-6.5c-3.6 0-6.4-.3-6.2-.8.2-.4 1.1-2.8 2.2-5.5l1.9-4.7h16.9c15.6 0 16.9-.1 16.6-1.8-.3-1.5-2-1.7-16.1-2l-15.8-.3.7-2.2c1.1-3.5 1-4.9-.4-5.4-.8-.3-1.9 1.1-2.9 3.6zM320.7 805.6c-.4.4-.7 9.2-.7 19.6 0 17.8.1 18.9 2.1 20.9 1.8 1.8 3 2.1 9.5 1.7 9.2-.4 11.4-2.2 12.2-9.7.2-2.7.2-5.8-.2-6.7-1.1-2.9-3.6.4-3.6 4.7 0 5.5-2.7 7.9-8.9 7.9-2.8 0-5.3-.6-6-1.3-.6-.8-1.2-8.1-1.3-19.2-.3-16.7-.9-20.1-3.1-17.9zM383.5 808c-1.1 1.7.5 3 3.6 3 2.8 0 2.9.1 2.9 4.9v5l-4.2.3c-6 .4-6 3.2-.1 3.6l4.2.3.3 11.7c.3 13.7 1.2 14.6 7.7 8.6 4.1-3.6 5.4-7.4 2.6-7.4-.8 0-1.5.4-1.5.9s-1.1 1.6-2.5 2.5L394 843v-17.9l4.3-.3c2.9-.2 4.2-.8 4.2-1.8s-1.3-1.6-4.2-1.8l-4.3-.3v-5c0-4.8.1-4.9 3.1-4.9 2.4 0 3-.4 2.7-1.8-.3-1.4-1.6-1.7-8-2-4.5-.2-7.9.1-8.3.8z"/><path d="M401.8 808.6c-1.5 1.4-.8 3.4 1.1 3.4 4.9 0 5.1.5 5.1 13.6V838l-4 4.4c-2.2 2.4-4 4.8-4 5.5 0 2.3 3.4 1 6.9-2.7l3.6-3.8 5.6 2.9c4.5 2.3 7.3 2.9 15.1 3.4 10.4.6 14.8 0 14.8-2.1 0-1-2.7-1.5-11.7-1.8-8.7-.3-12.7-.9-15.3-2.2-7-3.6-7-3.7-7-17.1 0-8.1-.4-12.7-1.3-13.8-1.3-1.9-7.7-3.4-8.9-2.1zM463.4 912.6l.7 2.7-8.5-.5-8.6-.6v4.9c0 4.2.3 4.9 2 4.9 1.5 0 2-.7 2-2.5 0-2.3.4-2.5 4-2.5 3.7 0 4 .2 3.1 1.9-1.1 2-6.2 6.6-8.3 7.4-1 .4-.8 1 .6 2.1 1.9 1.5 2.2 1.4 5.1-1.4 3-2.9 3.6-3.1 9.6-2.8l6.4.3-2.9 1.9c-2.2 1.6-3.1 1.7-4.5.8-2.8-2.1-4-2.4-5.7-1.8-1.5.6-1.4.9.5 3l2.3 2.4-4.9 1.5c-2.6.9-6.3 1.9-8 2.2-1.8.4-3.3 1-3.3 1.5 0 1.7 3.1 3.2 5.5 2.6 2.5-.6 2.5-.6 2.5 6.4 0 6.8.1 7 2.5 7 1.6 0 2.5-.6 2.5-1.5 0-2.3 14.8-2.2 16.5.2.7.9 1.9 1.4 2.9 1 1.2-.5 1.6-2 1.6-7.2 0-6.4 0-6.5 2.4-5.9 1.8.4 2.7.1 3.5-1.4 1.8-3.4 1.3-4.2-3-4.2-2.3 0-5.9-.5-8-1.1l-3.8-1.2 4.5-4.4c2.4-2.5 4.4-4.9 4.4-5.5 0-.6-3.3-.8-8.4-.6-6 .2-8.2 0-7.5-.8.5-.6.6-1.4.2-1.7-.3-.4 3.3-.7 8-.7 8.7 0 8.7 0 8.7 2.6 0 2.1.4 2.5 2.3 2.2 1.9-.3 2.2-.9 2.2-4.8v-4.5H477c-7 0-7.5-.1-7.8-2.3-.3-1.7-1-2.2-3.4-2.2-2.8 0-3 .2-2.4 2.6zm7.1 24.4l5 1.9h-19l4-1.8c5-2.4 4.2-2.4 10-.1zm3.5 7.5c0 2.5-.1 2.5-8 2.5s-8 0-8-2.5.1-2.5 8-2.5 8 0 8 2.5zM512.1 910.9c-1.2.8-1.3 1.4-.3 3.5 1.2 2.7 2.7 3.2 5 1.7 1-.6 1.1-1.3.1-3.4-1.3-2.8-2.5-3.3-4.8-1.8zM565 915c0 4.3-.3 5-2 5s-2-.7-2-4-.3-4-2-4c-1.8 0-2 .7-2 6v6h21v-6c0-5.3-.2-6-2-6-1.7 0-2 .7-2 4 0 3.7-.2 4-2.6 4-2.6 0-2.6-.1-2.2-5 .5-4.7.4-5-1.8-5s-2.4.4-2.4 5zM543.6 912.9c-.3.4-.1 2.2.3 3.9.9 3 .8 3.1-2.2 3.4-2 .2-3.2.8-3.2 1.8 0 1.2 1.7 1.6 7.8 1.8 7.2.3 7.7.1 7.7-1.8 0-1.6-.6-2-3.7-2-2.5 0-3.3-.3-2.4-.9 2-1.3.5-7.1-1.9-7.1-1 0-2.1.4-2.4.9zM499 927.3c0 10.4-1.9 18.4-5 21.2-2.6 2.3-2.5 2.9.5 4.3 2.3 1.1 2.7.9 4.6-2.1 1.1-1.7 2.7-5.8 3.6-9l1.6-5.7H515c10.1 0 10.8.1 11.3 2.1.4 1.3 1.2 2 2.4 1.7 1.6-.3 1.8-1.6 2.1-11.1l.3-10.7H499v9.3zm27-.8v4.5h-22v-9h22v4.5zM548.6 926.8c-.2.4-.7 3.4-1.1 6.6-1 8.5-1.9 10.4-5.2 10.8-2.2.2-2.9.9-3.1 3.1-.3 2 .1 2.8 1 2.5 11.7-3.2 13.8-4.1 13.8-6.3 0-1.8-.4-2.2-2-1.8-2.4.6-2.5-.3-.5-7.7.8-3 1.5-5.8 1.5-6.1 0-.9-3.9-1.8-4.4-1.1zM555 928c0 1.7.6 2 4.5 2 3.8 0 4.5.3 4.5 2s-.7 2-4.5 2H555v9.5c0 8.8.1 9.5 2 9.5 1.8 0 2-.7 2-8 0-6.4.3-8 1.5-8s1.5 1.3 1.5 6c0 5.3.2 6 2 6s2-.7 2-6c0-3.3.4-6 1-6s1 2.7 1 6c0 5.3.2 6 2 6 1.3 0 2.2.9 2.6 2.5.7 2.9.6 2.8 3.8 1.4 2.3-1.1 2.5-1.7 2.8-10l.3-8.9h-5.8c-5 0-5.8-.2-5.5-1.8.2-1.3 1.6-1.8 6.3-2.2 4.4-.4 6-.9 6-2 0-1.2-2.2-1.5-12.7-1.8-12.3-.2-12.8-.2-12.8 1.8zm20 15c0 4.7-.3 6-1.5 6s-1.5-1.3-1.5-6 .3-6 1.5-6 1.5 1.3 1.5 6z"/><path d="M540.4 930.2c.3 1.3.6 4 .6 6.1 0 3.4.3 3.8 2.3 3.5 2.3-.3 2.4-1.2 1.2-8.6-.5-2.4-1.1-3.2-2.7-3.2s-1.9.4-1.4 2.2z"/></svg>